# xmcd
#
# Track frame offsets:
#	150
#	14403
#	27400
#	47682
#	63981
#	81757
#	98465
#	116094
#	134479
#	149474
#	168715
#	184317
#	201327
#	215872
#	233560
#	255498
#
# Disc length: 3663
#
# Revision: 1
# Processed by: cddbd v1.5.1PL0 Copyright (c) Steve Scherf et al.
# Submitted via: dBpowerAMP V4.0
# Normalized: r0:TDELIM( - )
#
DISCID=eb0e4d10
DTITLE=Various Artist - Time-Life Country's Got Heart
DYEAR=1900
DGENRE=Country
TTITLE0=Clay Walker - Rumor Has it
TTITLE1=Martina McBride - I Love You
TTITLE2=Clint Black - When I Said I Do
TTITLE3=Diamond Rio - One More Day
TTITLE4=Alan Jackson - There Goes
TTITLE5=Jo Dee Messina - Stand Beside Me
TTITLE6=John Michael Montgomery - I Can Love You Like That
TTITLE7=Keith Whitley - It Ain't Nothin'
TTITLE8=Lorrie Morgan - I Didn't Know My Own Strength
TTITLE9=BlackHawk - I'm Not Strong Enough to Say No
TTITLE10=Kevin Sharp - Nobody Knows
TTITLE11=Kenney Rogers - Buy Me a Rose
TTITLE12=Collin Raye - In This Life
TTITLE13=Phil Vassar - Just Another Day in Paradise
TTITLE14=Deana Carter - Strawberry Wine
TTITLE15=Tracy Byrd - The Keeper of the Stars
EXTD=
EXTT0=
EXTT1=
EXTT2=
EXTT3=
EXTT4=
EXTT5=
EXTT6=
EXTT7=
EXTT8=
EXTT9=
EXTT10=
EXTT11=
EXTT12=
EXTT13=
EXTT14=
EXTT15=
PLAYORDER=
